/* XPM */
static char *_29d9adfb328427a9ffd3e6d76a6a149UfLoocHu6c4EIsZD[] = {
/* columns rows colors chars-per-pixel */
"64 64 13 1 ",
"  c #F1F1F1",
". c gray95",
"X c #F3F3F3",
"o c #F4F4F4",
"O c gray96",
"+ c #F6F6F6",
"@ c gray97",
"# c #F8F8F8",
"$ c #F9F9F9",
"% c gray98",
"& c #FBFBFB",
"* c gray99",
"= c #FDFDFD",
/* pixels */
"$$$$$$$$$$$$$$$$@$$$$$$$$$$$$$$$$$$$$$$$$$$$$$*$$$$$$$*$$$$$$**$",
"$$$$$$$$$$$$$$$$$$$$$$$$$$$$$$$$$$$$$$$$$$$$$$$$$$*$$$$$$$$$$$*$",
"@$$$$$$$$$$$$$$$$$$$$$$$$$$$*$$$$$$$$$$$$$*$$$$$$$$$$$$$$$$$$$$$",
"$$$$$$$$$$$$$$$$$$$$$$$$$$$$$$$$$$$$$$$$$$*$$$$$*$$$$$$$$$$*$$$$",
"$$$$$$$$$@$$$$$$$$$$$$$$$$$$$**$$$$$$$$$$$*$$$$$$$*$$*$*$$**$**$",
"$$$$@$$$$$$$$$$$$$$$$$$$$$$$$$$$$*$$$$$$$$**$$$$$$$$$$$$$$*$***$",
"$$$$$$$$$$$$$$$$$$$$$$$$$$$$$$**$*$$$$$*$$$$$$$$$$*$$$$$$$$$$$*$",
"$$$$$$@$@$$$$$$$$$$$@$$$$$$$*$$$$$$$$$$$**$$$$$$$$$$$$$$$$$$$$$$",
"$$$$$$$$$$$$$$$$$$$$@$$$$$$$$$$$$$$$$$$$$$$$$$$$$$$$$$$$$$$$$$$$",
"$$$$$$$$$$$$$$$$$$$$$$$$$$$$$$$$$$$*$$$$$$$$$$$$$$*$$$$$$$$$$$$$",
"$$$$$$$$$$$$$$$$$$$$$$$$$$$$$$$$$$$$$$$$$$$$$$$$$$$$$$$$$$$*$$$$",
"@@$$$$$$$$$$$@$$$$$$$$@$$$$$$$*$$$$$$$$$$$$*$*$$$$$$$$$$$$$$$$$$",
"$$$$@@$$$$$$$$$$$$$$$$$$$$$$$$$$$$$$$$$$$$$$$$$$$$*$$$$$$$$$$$$$",
"@$$$$$$$$$$$$$$$$$$$$@$$$$$$$$$$$$$$$$$$$$$$$$$$*$$$$$$$$$$$$$$$",
"$$$@@$$$$$$$$$$$$$$$@$$$$$$$$$$$$$$$$$$$$$$$$$$$$$$$$$$$$$$$$$$$",
"@$$$$$@$$$$$$$$$$$$$$$$$$$$$$@$$$$$$$$$$$$*$$$$$$$$$$$$$$$$$$$$$",
"@$$$$$$$$$$$$$$$$$$$$$$$$$$$$$$$$$$$$$$$$$$$$$$$$$$$$$$$@$$$$$$$",
"$$$$@$@@@$$$$$$$$$$$$$$$$$$$$$$$$$$$$$$$$$$$$$$$$$$$$$$$$$$$$$$$",
"$$$$$$@@$$$$$@$$$@$$$$$$$$$$$$$$$$$$$$$$$$$$$$$$$$$$$$$$@$$$$$$$",
"$$$@$@$$$$$$@$$$$$$@$$$$$$$$$$$$$$$$$$$$$$$$$$$$$$$$$$$$$$$$$$$$",
"$@$$$@$$$@$$$$$$$@$$@$$$$$$$$$$$$@$$$$$$$$$$$$$$$$$$$$$$$$$$$$$$",
"$$$$$@@@@@$$$$$$$$$@@$$$$$$$$$$$$$$$$$$$$$$$$$$$$$$$$$$$$$$$$@$$",
"$$$$$@@@@$$$$$$$$$$$@$$$@$$$@$$$$$$$$$$$$$$$$$$$$$$$$$$$$$$@$$$$",
"$@$$$@@$$@$$$$@@$$@@$$@$$$$$$$$$$$$$$@$$$$$$$$$$$$$$$$$$$$$$$$$$",
"@$$$$$$$@$$@$$@@$$$$$$@$$$$$$$$$$$$$$$$$$$$$$$$@$$$$$$$$$$$$$$$@",
"@$$$$@@@$$$@$$@$$$$@$$$$$$$$$$$$$$$$$$$$$@$$$$$$$$$$@$$$$$$$@$$@",
"$@@$$@@@$$$$$$@@$$@@$$@@$$$$$$$$$$$$$$$$$$$$$$$$$$$$$$$$@$$@$@$@",
"@@@@@@@$@@$$$$@@$$$@$$$@$$$$$$$@$$$$$$$$$$$$$$$$$@$$$$$$@$@@$@@@",
"@@@@@@@@@@@$$$@@$$$$$@@@@$$$$$$$$$$$$$$$$$$$$$$$$$$$$$@@@@@$@@@$",
"@@$@@@$@@@@@$$$@@$$$$$@@@$$$$$$@$$$$$$@$$$$$$$$$$$$$$$$@$@@$$@@@",
"@$@$@$@@@@@@@@@@$$$$@@@@$$$$@@$@$$$@$$$$$$$$$$$$$$$$$@$$@@$@@$$$",
"@@@$@@@@@@@$@@@@$@$@$@@@@$$@$@$@@$$$$@$$$$$$$$$$$$$$$$@@$@@@@@$$",
"@@@$@@@@$$@@@@@@@$$@$$@@$$$@@@$@@$$@$@$$$$$$$$$$$$$$$$@@$$@@@@$$",
"@@@@@@@@@@$@@@@@$@@@@@$@$@@@$@@@@$@@$$$$$$$$$$$$@$$$$@@@@@@@@@@@",
"@$@@@@@@@@$@@@@$@$$@@@@@@@@@@@@@$$@$@$$@$$$$$@@$$@@$$$@@@@$@@@@@",
"@@@@@@@@@@$@@@@@@@@@@@@@@@@$@@@@$@$$$$@@@$$$$@@$$@@$$$$$@@$@@@@@",
"@@@@@@@@@@@@@@@@$$$@@@@@@@@$@$@$$@$$$$@@$$$$$@$$$@$@@$@$@@$@@$@@",
"@@@@@@@@@$@@@@@@@$$@@@@@@@@@@$@$$@@$$@@$$@@$$$$$$$@@@@@$@@@@@$@$",
"@@@@@@@@@@@@@@@@@@@@@@@@@@@$@$$@$@@$$$@@$$@$$$$$$$$@@$@$@@@$@@@$",
"@@@@@@@@@@@@@@@@@@@@@$@@@@@@@@$@@@@@$@@@$$$$$@$$@$$$$@@@@@@@@@@@",
"@@@@@@@@@@@@@@@@@@$@@@@@@@@@@@@@@@@@@@@$$@@@@@$$@@$$$$@@$@@@@@@@",
"@@@@@X@@@@@@@@@@@@@@X@$@@@@@@@@@@@@@$@@$$@@@$@$@$$$$$@@@@$@@@@@@",
"XX@@@@@@@$@@@@X@@@@@@@$@$@@@@@@@@@$@$@@$@$@@@@@$@$$$$@@@@@@@@@@@",
"XX@@@@@@@@@@@@@@@@@@@@@@@$@@@@@@@$$@$@@@@@$@$@@$@@@@$@@@@X@@@@@@",
"@@@@@@@@@@@X@@@@@@@@@@@@@@@@@@@@@$$@@@@@@@@$$$@@@@$$@@@@@@@$@@@@",
"X@@@@@@@@@XX@@@@@@@X@@@@$@@@@@@@@$@@@@$@@@@$@@@@@@$@@@@@@@@@@@@@",
"@@X@@X@@@@@X@@@@@@@@@@@@$@@@@@@@@@@@@@@@@@@@@@@@@@$@@@@@@@@@@@@@",
"@@@@@@@X@@@@@@@@@@@@@@@@@@@@@@$@@$@@@@@@@@@@@@@@@$@@@@@@@@@@@X@@",
"X@X@@@@@@XX@@@@@@@@@@@@@@@@@@@@@@@@@@@@@@@@@@@@@@$@@$$@@X@@@@@@@",
"@X@@@@X@@@@@@@@@@@@X@X@@@@@@@@@@@@@@@@@@@@@@@@@@@@@@@@@@@@X@@@@@",
"@X@@X@@XXX@@@@@@@@@X@X@@@@@@@@@@@@@@@@@@@@@@@@@@@@@@@@@@@X@@@@@@",
"XXX@@XXXXX@@@@@@X@@X@@X@@@@X@X@@@@@$@@@@@@@@@@@@@@@@@@@@@@@@@@@@",
"@@XX@@X@@X@X@@@@XX@X@@@@X@@@@@@@@@@@@@@@@@@@@@@@@@@@@@@@@@@@@@@@",
"XXXXXX@@@@X@@X@@@XXX@X@@XX@@@@@@@@@@@@@@@@@@@@@@@@@@@@@@XXXX@@@@",
"X@XXX@@@@@@X@@@@@XX@@@@@XX@@@@@@@@@@@@@@@@@@@@@@@@@@@@@@@@XX@XXX",
"X@XXX@@@X@@@X@@@@@X@@XX@@@X@X@X@@@@@X@@@@@@@@@@@@@@@@@@@@XX@@@XX",
"X@X@X@@@@@X@X@@@@@@@@XX@@@XX@@X@@@@@@@@@@@@@@@@@@@@@@@@@@@@XX@@@",
"@@@X@@@@XXXX@@XX@@@@@X@@@@XX@@X@@@@@@@@@X@XX@@@@@@@@@@X@@XXXXXXX",
"XXXXXXXXX@@@@@@XX@XX@@@@XX@X@@@@XX@@@X@@@@X@@@@@@@@@@@X@@@XXXX@X",
"XXXXXXXX@XXX@X@XXXXXX@@@@@@X@@@@XXXXX@@@@@@@@@@X@@@@@@XX@XX@@@@@",
"XXXXXXX@XXXXXX@XXXXXXX@@@X@@XX@@X@@X@@X@@@@X@@@@XX@@@@@X@@X@XX@X",
"XX@@XXX@@@XXX@@X@XXXXX@@@@@@XXXX@@@XX@X@X@@@@@@@X@@@@@@X@@XXXXXX",
"@XX@X@XX@@X@XXXXXX@@@X@@@@@@XXX@@@@@@@@@X@X@@@@X@X@X@XXXXXX@X@X@",
"@XXXXXX@@XX@XXXXX@X@@X@@@@@@X@@@@@@X@@@X@@@@@@@X@X@@@@XXX@XX@@X@"
};
